<svg width="24" height="40" viewBox="0 0 24 40" fill="none" xmlns="http://www.w3.org/2000/svg">
<path d="M23.22 18.4392L5.41949 0.63902C5.00779 0.226991 4.4582 7.16832e-07 3.87219 6.14371e-07C3.28618 5.11909e-07 2.73659 0.226991 2.32489 0.63902L1.014 1.94958C0.161001 2.80355 0.161001 4.19151 1.014 5.04419L15.9615 19.9917L0.997411 34.9558C0.585707 35.3678 0.358392 35.9171 0.358392 36.5028C0.358392 37.0891 0.585707 37.6384 0.997411 38.0508L2.30829 39.361C2.72032 39.773 3.26959 40 3.8556 40C4.44161 40 4.9912 39.773 5.4029 39.361L23.22 21.5445C23.6327 21.1312 23.8593 20.5794 23.858 19.9927C23.8593 19.4038 23.6327 18.8522 23.22 18.4392Z" fill="white"/>
</svg>
